<?xml version="1.0" standalone="no"?><!DOCTYPE svg PUBLIC "-//W3C//DTD SVG 1.1//EN" "http://www.w3.org/Graphics/SVG/1.1/DTD/svg11.dtd"><svg t="1589176228379" class="icon" viewBox="0 0 1024 1024" version="1.1" xmlns="http://www.w3.org/2000/svg" p-id="5340" xmlns:xlink="http://www.w3.org/1999/xlink" width="200" height="200"><defs><style type="text/css"></style></defs><path d="M912.384 544.256H111.616c-17.92 0-32.256-14.336-32.256-32.256s14.336-32.256 32.256-32.256h800.256c17.92 0 32.256 14.336 32.256 32.256s-14.336 32.256-31.744 32.256zM912.384 384H111.616c-17.408 0-31.744-14.336-31.744-31.744V31.744c0-17.408 14.336-31.744 31.744-31.744h800.256c17.408 0 31.744 14.336 31.744 31.744v320c0.512 17.92-13.824 32.256-31.232 32.256zM143.872 320H880.64V63.488H143.872v256.512zM912.384 1024H111.616c-17.408 0-31.744-14.336-31.744-31.744v-320c0-17.408 14.336-31.744 31.744-31.744h800.256c17.408 0 31.744 14.336 31.744 31.744v320c0.512 17.408-13.824 31.744-31.232 31.744zM143.872 960.512H880.64v-256.512H143.872v256.512z" fill="#333333" p-id="5341"></path></svg>