<?xml version="1.0" standalone="no"?><!DOCTYPE svg PUBLIC "-//W3C//DTD SVG 1.1//EN" "http://www.w3.org/Graphics/SVG/1.1/DTD/svg11.dtd"><svg t="1589334251639" class="icon" viewBox="0 0 1024 1024" version="1.1" xmlns="http://www.w3.org/2000/svg" p-id="1568" xmlns:xlink="http://www.w3.org/1999/xlink" width="200" height="200"><defs><style type="text/css"></style></defs><path d="M819 268.3H205c-34.8 0-63 28.3-63 63v487.5c0 34.8 28.3 63 63 63h614c34.8 0 63-28.3 63-63V331.4c0.1-34.8-28.2-63.1-63-63.1z m27.1 550.5c0 14.9-12.1 27-27 27H205c-14.9 0-27-12.1-27-27v-351l227 86v87c0 24.2 19.6 43.8 43.8 43.8h126.5c24.2 0 43.8-19.6 43.8-43.8v-87.2l227-86.5v351.7zM441 640.8V514.3c0-4.3 3.5-7.8 7.8-7.8h126.5c4.3 0 7.8 3.5 7.8 7.8v126.5c0 4.3-3.5 7.8-7.8 7.8H448.8c-4.3 0-7.8-3.5-7.8-7.8z m405.1-212.2l-227 86.5v-0.8c0-24.1-19.6-43.8-43.8-43.8H448.8c-24.2 0-43.8 19.7-43.8 43.8v1l-227-86v-97.9c0-14.9 12.1-27 27-27h614c14.9 0 27 12.1 27 27l0.1 97.2zM703.3 241.1c-9.9 0-18-8.1-18-18v-17.9c0-14.9-12.1-27-27-27H365.7c-14.9 0-27 12.1-27 27v17.9c0 9.9-8.1 18-18 18s-18-8.1-18-18v-17.9c0-34.8 28.3-63 63-63h292.6c34.8 0 63 28.3 63 63v17.9c0 10-8 18-18 18z" p-id="1569" fill="#1296db"></path></svg>