<?xml version="1.0" standalone="no"?><!DOCTYPE svg PUBLIC "-//W3C//DTD SVG 1.1//EN" "http://www.w3.org/Graphics/SVG/1.1/DTD/svg11.dtd"><svg t="1589184905647" class="icon" viewBox="0 0 1024 1024" version="1.1" xmlns="http://www.w3.org/2000/svg" p-id="4794" xmlns:xlink="http://www.w3.org/1999/xlink" width="200" height="200"><defs><style type="text/css"></style></defs><path d="M407.552 421.888h-14.336c-16.384 0-30.72 14.336-30.72 30.72s14.336 30.72 30.72 30.72h14.336c16.384 0 30.72-14.336 30.72-30.72s-14.336-30.72-30.72-30.72z m16.384-53.248c12.288 12.288 30.72 12.288 43.008 0 10.24-10.24 12.288-24.576 4.096-36.864h81.92c26.624 0 49.152 20.48 49.152 45.056s-22.528 45.056-49.152 45.056H512c-16.384 0-30.72 14.336-30.72 30.72s14.336 30.72 30.72 30.72h45.056c57.344 0 104.448-47.104 104.448-104.448S614.4 274.432 557.056 274.432H456.704l10.24-10.24c12.288-12.288 12.288-30.72 0-43.008-12.288-12.288-30.72-12.288-43.008 0l-53.248 53.248c-12.288 12.288-12.288 30.72 0 43.008l53.248 51.2z" p-id="4795"></path><path d="M497.664 722.944c198.656 0 360.448-161.792 360.448-360.448S696.32 0 497.664 0C296.96 0 135.168 161.792 135.168 360.448S296.96 722.944 497.664 722.944z m0-663.552c165.888 0 301.056 135.168 301.056 301.056S663.552 661.504 497.664 661.504 196.608 526.336 196.608 360.448 329.728 59.392 497.664 59.392z m346.112 632.832s-180.224 28.672-241.664 120.832c0 0-14.336 8.192-14.336 40.96 0 20.48 14.336 34.816 14.336 34.816C669.696 997.376 843.776 1024 843.776 1024c32.768 0 59.392-26.624 59.392-59.392V753.664c0-34.816-26.624-61.44-59.392-61.44z m0 256s0 14.336-14.336 14.336c0 0-165.888-51.2-165.888-104.448 0 0-28.672-57.344 165.888-104.448 12.288-2.048 16.384 12.288 14.336 14.336v180.224zM466.944 858.112a45.056 45.056 0 1 0 90.112 0 45.056 45.056 0 1 0-90.112 0zM180.224 692.224c-32.768 0-59.392 26.624-59.392 59.392V962.56c0 32.768 26.624 59.392 59.392 59.392 0 0 186.368-38.912 241.664-135.168 0 0 14.336-16.384 14.336-34.816 0-24.576-14.336-40.96-14.336-40.96-40.96-79.872-241.664-118.784-241.664-118.784z m180.224 165.888c0 53.248-163.84 104.448-163.84 104.448-14.336 0-14.336-14.336-14.336-14.336V768c0-2.048 2.048-18.432 14.336-14.336 192.512 47.104 163.84 104.448 163.84 104.448z" p-id="4796"></path></svg>