<?xml version="1.0" standalone="no"?><!DOCTYPE svg PUBLIC "-//W3C//DTD SVG 1.1//EN" "http://www.w3.org/Graphics/SVG/1.1/DTD/svg11.dtd"><svg t="1589174440977" class="icon" viewBox="0 0 1024 1024" version="1.1" xmlns="http://www.w3.org/2000/svg" p-id="4290" xmlns:xlink="http://www.w3.org/1999/xlink" width="200" height="200"><defs><style type="text/css"></style></defs><path d="M508 990.4c-261.6 0-474.4-212-474.4-474.4S246.4 41.6 508 41.6s474.4 212 474.4 474.4S769.6 990.4 508 990.4zM508 136.8c-209.6 0-379.2 169.6-379.2 379.2s169.6 379.2 379.2 379.2 379.2-169.6 379.2-379.2S717.6 136.8 508 136.8zM650.4 563.2 508 563.2c-26.4 0-47.2-21.6-47.2-47.2L460.8 231.2c0-26.4 21.6-47.2 47.2-47.2 26.4 0 47.2 21.6 47.2 47.2l0 236.8 95.2 0c26.4 0 47.2 21.6 47.2 47.2C697.6 542.4 676.8 563.2 650.4 563.2z" p-id="4291"></path></svg>